<svg width="103" height="103" viewBox="0 0 103 103" fill="none" xmlns="http://www.w3.org/2000/svg">
<circle cx="50" cy="53" r="50" fill="black"/>
<path d="M102.374 50.616C102.172 23.566 79.6625 1.07936 51.7448 0.403601L51.2465 50.7018L102.374 50.616Z" fill="#404040"/>
<path d="M73.1027 53.419C73.1027 54.521 70.5507 55.797 65.4467 57.247C65.9107 63.279 66.1427 68.412 66.1427 72.646C66.1427 79.954 65.2147 83.608 63.3587 83.608C62.3727 83.608 61.5897 82.999 61.0097 81.781C60.4297 80.563 59.9657 78.446 59.6177 75.43C59.2117 69.862 58.7767 64.41 58.3127 59.074C55.7027 59.77 53.3247 60.408 51.1787 60.988C49.0327 61.51 45.7847 62.38 41.4347 63.598C36.3307 76.938 33.3147 83.608 32.3867 83.608C31.4587 83.608 30.4437 83.057 29.3417 81.955C28.2977 80.795 27.7757 79.577 27.7757 78.301C27.7757 77.721 29.4287 73.603 32.7347 65.947H32.1257C30.9657 65.947 29.9217 65.57 28.9937 64.816C28.1237 64.062 27.6887 63.134 27.6887 62.032C27.6887 60.872 30.5597 59.364 36.3017 57.508C37.2297 55.42 37.9837 53.535 38.5637 51.853C39.8977 48.547 41.7537 44.023 44.1317 38.281C46.5097 32.539 48.0177 28.885 48.6557 27.319C49.2937 25.695 50.3957 24.332 51.9617 23.23C53.5857 22.07 55.1517 21.49 56.6597 21.49C58.4577 21.49 60.0527 24.361 61.4447 30.103C62.8947 35.845 64.0547 42.95 64.9247 51.418C66.5487 51.244 67.9697 51.157 69.1877 51.157C71.7977 51.157 73.1027 51.911 73.1027 53.419ZM44.6537 55.246C48.7717 54.144 53.1217 53.216 57.7037 52.462C56.6597 42.544 55.6447 35.091 54.6587 30.103C52.0487 36.077 48.7137 44.458 44.6537 55.246Z" fill="#D7D7D7"/>
</svg>
